<svg width="300" height="60" viewBox="0 0 300 60" fill="none" xmlns="http://www.w3.org/2000/svg">
<path d="M88.52 37.76C87.8907 37.76 87.3467 37.6533 86.888 37.44C86.44 37.2373 86.0987 36.9333 85.864 36.528C85.6293 36.1333 85.528 35.6587 85.56 35.104L85.72 32.48C85.752 31.9147 85.6667 31.5093 85.464 31.264C85.2613 31.008 84.8133 30.88 84.12 30.88H82.36V29.6H84.12C84.8133 29.6 85.2613 29.4773 85.464 29.232C85.6667 28.976 85.752 28.5653 85.72 28L85.56 25.376C85.528 24.8107 85.6293 24.3307 85.864 23.936C86.0987 23.5413 86.44 23.2427 86.888 23.04C87.3467 22.8267 87.8907 22.72 88.52 22.72H89.24V24H88.52C88.0187 24 87.6347 24.1173 87.368 24.352C87.1013 24.576 86.9787 24.9173 87 25.376L87.16 28C87.2027 28.6933 87.0373 29.248 86.664 29.664C86.2907 30.0693 85.7627 30.272 85.08 30.272V30.192C85.752 30.192 86.2747 30.4 86.648 30.816C87.032 31.232 87.2027 31.7867 87.16 32.48L87 35.104C86.9787 35.5627 87.1013 35.904 87.368 36.128C87.6347 36.3627 88.0187 36.48 88.52 36.48H89.24V37.76H88.52ZM274.235 37.76V36.48H274.955C275.456 36.48 275.84 36.3627 276.107 36.128C276.374 35.904 276.496 35.5627 276.475 35.104L276.315 32.48C276.272 31.7867 276.438 31.232 276.811 30.816C277.195 30.4 277.723 30.192 278.395 30.192V30.272C277.712 30.272 277.184 30.0693 276.811 29.664C276.438 29.248 276.272 28.6933 276.315 28L276.475 25.376C276.496 24.9173 276.374 24.576 276.107 24.352C275.84 24.1173 275.456 24 274.955 24H274.235V22.72H274.955C275.584 22.72 276.123 22.8267 276.571 23.04C277.03 23.2427 277.376 23.5413 277.611 23.936C277.846 24.3307 277.947 24.8107 277.915 25.376L277.755 28C277.723 28.5653 277.808 28.976 278.011 29.232C278.214 29.4773 278.662 29.6 279.355 29.6H281.115V30.88H279.355C278.672 30.88 278.224 31.008 278.011 31.264C277.808 31.5093 277.723 31.9147 277.755 32.48L277.915 35.104C277.947 35.6587 277.846 36.1333 277.611 36.528C277.376 36.9333 277.03 37.2373 276.571 37.44C276.123 37.6533 275.584 37.76 274.955 37.76H274.235Z" fill="#CC342D"/>
<path d="M94.9138 36.16C93.7938 36.16 92.9138 35.8453 92.2738 35.216C91.6338 34.5867 91.3138 33.728 91.3138 32.64H92.7538C92.7538 33.3547 92.9404 33.9093 93.3138 34.304C93.6978 34.688 94.2311 34.88 94.9138 34.88C95.5964 34.88 96.1244 34.688 96.4978 34.304C96.8818 33.9093 97.0738 33.3547 97.0738 32.64V25.632H94.2738V24.32H98.5138V32.64C98.5138 33.728 98.1884 34.5867 97.5378 35.216C96.8978 35.8453 96.0231 36.16 94.9138 36.16ZM105.052 36.16C104.284 36.16 103.622 36.032 103.068 35.776C102.524 35.52 102.102 35.152 101.804 34.672C101.505 34.192 101.35 33.6213 101.34 32.96H102.78C102.78 33.5467 102.977 34.0107 103.372 34.352C103.777 34.6933 104.337 34.864 105.052 34.864C105.724 34.864 106.246 34.6987 106.62 34.368C107.004 34.0373 107.196 33.5787 107.196 32.992C107.196 32.5227 107.068 32.112 106.812 31.76C106.566 31.408 106.209 31.1627 105.74 31.024L104.156 30.528C103.356 30.2827 102.737 29.872 102.299 29.296C101.873 28.72 101.66 28.0427 101.66 27.264C101.66 26.6347 101.798 26.0907 102.076 25.632C102.364 25.1627 102.764 24.8 103.276 24.544C103.788 24.2773 104.39 24.144 105.084 24.144C106.108 24.144 106.929 24.432 107.548 25.008C108.166 25.5733 108.481 26.3307 108.492 27.28H107.052C107.052 26.704 106.876 26.256 106.524 25.936C106.182 25.6053 105.697 25.44 105.068 25.44C104.449 25.44 103.964 25.5893 103.612 25.888C103.27 26.1867 103.1 26.6027 103.1 27.136C103.1 27.616 103.228 28.032 103.484 28.384C103.74 28.736 104.108 28.9867 104.588 29.136L106.188 29.648C106.966 29.8933 107.569 30.3093 107.996 30.896C108.422 31.4827 108.635 32.1707 108.635 32.96C108.635 33.6 108.486 34.16 108.188 34.64C107.889 35.12 107.468 35.4933 106.924 35.76C106.39 36.0267 105.766 36.16 105.052 36.16ZM114.581 36.16C113.877 36.16 113.269 36.0267 112.757 35.76C112.256 35.4933 111.867 35.1093 111.589 34.608C111.323 34.096 111.189 33.4933 111.189 32.8V27.52C111.189 26.816 111.323 26.2133 111.589 25.712C111.867 25.2107 112.256 24.8267 112.757 24.56C113.269 24.2933 113.877 24.16 114.581 24.16C115.285 24.16 115.888 24.2933 116.389 24.56C116.901 24.8267 117.291 25.2107 117.557 25.712C117.835 26.2133 117.973 26.8107 117.973 27.504V32.8C117.973 33.4933 117.835 34.096 117.557 34.608C117.291 35.1093 116.901 35.4933 116.389 35.76C115.888 36.0267 115.285 36.16 114.581 36.16ZM114.581 34.864C115.211 34.864 115.691 34.688 116.021 34.336C116.363 33.9733 116.533 33.4613 116.533 32.8V27.52C116.533 26.8587 116.363 26.352 116.021 26C115.691 25.6373 115.211 25.456 114.581 25.456C113.963 25.456 113.483 25.6373 113.141 26C112.8 26.352 112.629 26.8587 112.629 27.52V32.8C112.629 33.4613 112.8 33.9733 113.141 34.336C113.483 34.688 113.963 34.864 114.581 34.864ZM120.815 36V24.32H122.735L126.303 34.32C126.282 34.0533 126.255 33.728 126.223 33.344C126.202 32.9493 126.18 32.5387 126.159 32.112C126.148 31.6747 126.143 31.264 126.143 30.88V24.32H127.535V36H125.615L122.063 26C122.084 26.256 122.106 26.5813 122.127 26.976C122.148 27.36 122.164 27.7707 122.175 28.208C122.196 28.6347 122.207 29.0453 122.207 29.44V36H120.815ZM131.209 31.36V30.08H136.329V31.36H131.209ZM140.035 36V24.32H143.651C144.344 24.32 144.952 24.464 145.475 24.752C145.997 25.0293 146.403 25.4187 146.691 25.92C146.979 26.4213 147.123 27.008 147.123 27.68C147.123 28.4693 146.915 29.1467 146.499 29.712C146.093 30.2773 145.539 30.6667 144.835 30.88L147.283 36H145.587L143.347 31.04H141.475V36H140.035ZM141.475 29.744H143.651C144.248 29.744 144.728 29.5573 145.091 29.184C145.453 28.8 145.635 28.2987 145.635 27.68C145.635 27.0507 145.453 26.5493 145.091 26.176C144.728 25.8027 144.248 25.616 143.651 25.616H141.475V29.744ZM149.628 36V24.32H153.388C154.114 24.32 154.743 24.464 155.276 24.752C155.81 25.0293 156.22 25.424 156.508 25.936C156.807 26.448 156.956 27.056 156.956 27.76C156.956 28.4533 156.807 29.0613 156.508 29.584C156.22 30.096 155.81 30.496 155.276 30.784C154.743 31.0613 154.114 31.2 153.388 31.2H151.068V36H149.628ZM151.068 29.904H153.388C154.018 29.904 154.519 29.712 154.892 29.328C155.276 28.9333 155.468 28.4107 155.468 27.76C155.468 27.0987 155.276 26.576 154.892 26.192C154.519 25.808 154.018 25.616 153.388 25.616H151.068V29.904ZM162.614 36.16C161.91 36.16 161.297 36.0267 160.774 35.76C160.262 35.4933 159.862 35.1093 159.574 34.608C159.297 34.096 159.158 33.4933 159.158 32.8V27.52C159.158 26.816 159.297 26.2133 159.574 25.712C159.862 25.2107 160.262 24.8267 160.774 24.56C161.297 24.2933 161.91 24.16 162.614 24.16C163.318 24.16 163.926 24.2987 164.438 24.576C164.95 24.8427 165.345 25.2267 165.622 25.728C165.899 26.2293 166.038 26.8267 166.038 27.52H164.598C164.598 26.8587 164.422 26.352 164.07 26C163.729 25.6373 163.243 25.456 162.614 25.456C161.985 25.456 161.489 25.632 161.126 25.984C160.774 26.336 160.598 26.8427 160.598 27.504V32.8C160.598 33.4613 160.774 33.9733 161.126 34.336C161.489 34.688 161.985 34.864 162.614 34.864C163.243 34.864 163.729 34.688 164.07 34.336C164.422 33.9733 164.598 33.4613 164.598 32.8H166.038C166.038 33.4827 165.899 34.08 165.622 34.592C165.345 35.0933 164.95 35.4827 164.438 35.76C163.926 36.0267 163.318 36.16 162.614 36.16ZM177.993 36V27.2H179.258V28.256H179.546L179.322 28.64C179.322 28.1493 179.45 27.76 179.706 27.472C179.972 27.184 180.33 27.04 180.778 27.04C181.268 27.04 181.647 27.2213 181.914 27.584C182.18 27.9467 182.314 28.4587 182.314 29.12L181.882 28.256H182.554L182.25 28.64C182.25 28.1493 182.383 27.76 182.65 27.472C182.927 27.184 183.29 27.04 183.738 27.04C184.292 27.04 184.719 27.248 185.017 27.664C185.327 28.08 185.482 28.6293 185.482 29.312V36H184.154V29.296C184.154 28.9333 184.074 28.6507 183.914 28.448C183.764 28.2453 183.54 28.144 183.242 28.144C182.954 28.144 182.724 28.2453 182.554 28.448C182.394 28.64 182.314 28.9173 182.314 29.28V36H181.161V29.296C181.161 28.9227 181.076 28.64 180.906 28.448C180.746 28.2453 180.516 28.144 180.218 28.144C179.919 28.144 179.695 28.2453 179.546 28.448C179.396 28.64 179.322 28.9173 179.322 29.28V36H177.993ZM187.891 36V34.688H191.011V28.512H188.291V27.2H192.451V34.688H195.411V36H187.891ZM191.571 25.616C191.219 25.616 190.942 25.5253 190.739 25.344C190.537 25.1627 190.435 24.9173 190.435 24.608C190.435 24.288 190.537 24.0373 190.739 23.856C190.942 23.664 191.219 23.568 191.571 23.568C191.923 23.568 192.201 23.664 192.403 23.856C192.606 24.0373 192.707 24.288 192.707 24.608C192.707 24.9173 192.606 25.1627 192.403 25.344C192.201 25.5253 191.923 25.616 191.571 25.616ZM200.413 36.16C199.538 36.16 198.829 35.8667 198.285 35.28C197.752 34.6933 197.485 33.8987 197.485 32.896V30.32C197.485 29.3067 197.752 28.5067 198.285 27.92C198.818 27.3333 199.528 27.04 200.413 27.04C201.138 27.04 201.72 27.2373 202.157 27.632C202.594 28.0267 202.813 28.5547 202.813 29.216L202.525 28.88H202.845L202.813 26.88V24.32H204.253V36H202.813V34.32H202.525L202.813 33.984C202.813 34.656 202.594 35.1893 202.157 35.584C201.72 35.968 201.138 36.16 200.413 36.16ZM200.893 34.912C201.49 34.912 201.96 34.7253 202.301 34.352C202.642 33.9787 202.813 33.4613 202.813 32.8V30.4C202.813 29.7387 202.642 29.2213 202.301 28.848C201.96 28.4747 201.49 28.288 200.893 28.288C200.285 28.288 199.805 28.4693 199.453 28.832C199.101 29.1947 198.925 29.7173 198.925 30.4V32.8C198.925 33.4827 199.101 34.0053 199.453 34.368C199.805 34.7307 200.285 34.912 200.893 34.912ZM210.007 36.16C209.132 36.16 208.423 35.8667 207.879 35.28C207.345 34.6933 207.079 33.8987 207.079 32.896V30.32C207.079 29.3067 207.345 28.5067 207.879 27.92C208.412 27.3333 209.121 27.04 210.007 27.04C210.732 27.04 211.313 27.2373 211.751 27.632C212.188 28.0267 212.407 28.5547 212.407 29.216L212.119 28.88H212.439L212.407 26.88V24.32H213.847V36H212.407V34.32H212.119L212.407 33.984C212.407 34.656 212.188 35.1893 211.751 35.584C211.313 35.968 210.732 36.16 210.007 36.16ZM210.487 34.912C211.084 34.912 211.553 34.7253 211.895 34.352C212.236 33.9787 212.407 33.4613 212.407 32.8V30.4C212.407 29.7387 212.236 29.2213 211.895 28.848C211.553 28.4747 211.084 28.288 210.487 28.288C209.879 28.288 209.399 28.4693 209.047 28.832C208.695 29.1947 208.519 29.7173 208.519 30.4V32.8C208.519 33.4827 208.695 34.0053 209.047 34.368C209.399 34.7307 209.879 34.912 210.487 34.912ZM221.313 36C220.801 36 220.353 35.8987 219.969 35.696C219.585 35.4933 219.286 35.2053 219.073 34.832C218.859 34.4587 218.753 34.0213 218.753 33.52V25.632H215.793V24.32H220.193V33.52C220.193 33.8827 220.294 34.1707 220.497 34.384C220.699 34.5867 220.971 34.688 221.313 34.688H224.113V36H221.313ZM229.706 36.16C229.013 36.16 228.405 36.0213 227.882 35.744C227.37 35.4667 226.97 35.0773 226.682 34.576C226.405 34.064 226.266 33.472 226.266 32.8V30.4C226.266 29.7173 226.405 29.1253 226.682 28.624C226.97 28.1227 227.37 27.7333 227.882 27.456C228.405 27.1787 229.013 27.04 229.706 27.04C230.4 27.04 231.002 27.1787 231.514 27.456C232.037 27.7333 232.437 28.1227 232.714 28.624C233.002 29.1253 233.146 29.7173 233.146 30.4V31.952H227.674V32.8C227.674 33.4933 227.85 34.0267 228.202 34.4C228.554 34.7627 229.056 34.944 229.706 34.944C230.261 34.944 230.709 34.848 231.05 34.656C231.392 34.4533 231.6 34.1547 231.674 33.76H233.114C233.018 34.496 232.656 35.0827 232.026 35.52C231.408 35.9467 230.634 36.16 229.706 36.16ZM231.738 30.992V30.4C231.738 29.7067 231.562 29.1733 231.21 28.8C230.869 28.4267 230.368 28.24 229.706 28.24C229.056 28.24 228.554 28.4267 228.202 28.8C227.85 29.1733 227.674 29.7067 227.674 30.4V30.864H231.85L231.738 30.992ZM236.468 36L235.06 27.2H236.34L237.22 33.44C237.252 33.6747 237.284 33.9307 237.316 34.208C237.359 34.4747 237.391 34.6987 237.412 34.88C237.433 34.6987 237.465 34.4747 237.508 34.208C237.561 33.9307 237.604 33.6747 237.636 33.44L238.612 27.2H239.988L240.964 33.44C240.996 33.6747 241.033 33.9307 241.076 34.208C241.129 34.4747 241.167 34.6987 241.188 34.88C241.209 34.6987 241.241 34.4747 241.284 34.208C241.337 33.9307 241.38 33.6747 241.412 33.44L242.324 27.2H243.54L242.068 36H240.484L239.54 29.92C239.497 29.6213 239.449 29.3227 239.396 29.024C239.343 28.7253 239.305 28.4907 239.284 28.32C239.263 28.4907 239.231 28.7253 239.188 29.024C239.145 29.3227 239.097 29.6213 239.044 29.92L238.052 36H236.468ZM248.126 36.16C247.198 36.16 246.467 35.9253 245.934 35.456C245.4 34.976 245.134 34.3307 245.134 33.52C245.134 32.6987 245.4 32.0533 245.934 31.584C246.467 31.1147 247.187 30.88 248.094 30.88H250.814V30C250.814 29.456 250.648 29.04 250.318 28.752C249.998 28.4533 249.539 28.304 248.942 28.304C248.419 28.304 247.982 28.416 247.63 28.64C247.278 28.8533 247.075 29.1467 247.022 29.52H245.582C245.678 28.7627 246.035 28.16 246.654 27.712C247.272 27.264 248.046 27.04 248.974 27.04C249.987 27.04 250.787 27.3013 251.374 27.824C251.96 28.3467 252.254 29.056 252.254 29.952V36H250.846V34.32H250.606L250.846 34.08C250.846 34.72 250.595 35.2267 250.094 35.6C249.603 35.9733 248.947 36.16 248.126 36.16ZM248.478 35.024C249.16 35.024 249.72 34.8533 250.158 34.512C250.595 34.1707 250.814 33.7333 250.814 33.2V31.952H248.126C247.646 31.952 247.267 32.0853 246.99 32.352C246.712 32.6187 246.574 32.9813 246.574 33.44C246.574 33.9307 246.739 34.32 247.07 34.608C247.411 34.8853 247.88 35.024 248.478 35.024ZM255.464 36V27.2H256.872V28.88H257.208L256.744 29.92C256.744 28.9707 256.946 28.256 257.352 27.776C257.768 27.2853 258.381 27.04 259.192 27.04C260.12 27.04 260.856 27.3333 261.4 27.92C261.954 28.496 262.232 29.28 262.232 30.272V30.8H260.792V30.4C260.792 29.7067 260.621 29.1787 260.28 28.816C259.949 28.4427 259.474 28.256 258.856 28.256C258.248 28.256 257.768 28.4427 257.416 28.816C257.074 29.1893 256.904 29.7173 256.904 30.4V36H255.464ZM268.081 36.16C267.388 36.16 266.78 36.0213 266.257 35.744C265.745 35.4667 265.345 35.0773 265.057 34.576C264.78 34.064 264.641 33.472 264.641 32.8V30.4C264.641 29.7173 264.78 29.1253 265.057 28.624C265.345 28.1227 265.745 27.7333 266.257 27.456C266.78 27.1787 267.388 27.04 268.081 27.04C268.775 27.04 269.377 27.1787 269.889 27.456C270.412 27.7333 270.812 28.1227 271.089 28.624C271.377 29.1253 271.521 29.7173 271.521 30.4V31.952H266.049V32.8C266.049 33.4933 266.225 34.0267 266.577 34.4C266.929 34.7627 267.431 34.944 268.081 34.944C268.636 34.944 269.084 34.848 269.425 34.656C269.767 34.4533 269.975 34.1547 270.049 33.76H271.489C271.393 34.496 271.031 35.0827 270.401 35.52C269.783 35.9467 269.009 36.16 268.081 36.16ZM270.113 30.992V30.4C270.113 29.7067 269.937 29.1733 269.585 28.8C269.244 28.4267 268.743 28.24 268.081 28.24C267.431 28.24 266.929 28.4267 266.577 28.8C266.225 29.1733 266.049 29.7067 266.049 30.4V30.864H270.225L270.113 30.992Z" fill="black"/>
<path d="M27 15H67L77 30L67 45H27L17 30L27 15Z" fill="#CC342D"/>
<path d="M32 30H62M32 30L37 25M32 30L37 35M62 30L57 25M62 30L57 35" stroke="white" stroke-width="2" stroke-linecap="round" stroke-linejoin="round"/>
</svg>
